<svg width="64" height="64" viewBox="0 0 64 64" fill="none" xmlns="http://www.w3.org/2000/svg">
<g id="Frame" clip-path="url(#clip0_17561_1248)">
<g id="Group">
<path id="Vector" d="M16.5517 12.138C17.7656 12.138 18.7587 11.1449 18.7587 9.93104V2.20696C18.7587 0.993122 17.7656 0 16.5517 0C15.3379 0 14.3448 0.993122 14.3448 2.20696V9.93104C14.3448 11.1449 15.3379 12.138 16.5517 12.138ZM43.0345 12.138C44.2484 12.138 45.2415 11.1449 45.2415 9.93104V2.20696C45.2413 0.993122 44.2482 0 43.0345 0C41.8207 0 40.8276 0.993122 40.8276 2.20696V9.93104C40.8276 11.1449 41.8207 12.138 43.0345 12.138ZM38.6206 52.9656C38.6206 59.0566 43.564 64 49.655 64C55.7461 64 60.6895 59.0566 60.6895 52.9656C60.6895 46.8745 55.7461 41.9311 49.655 41.9311C43.564 41.9311 38.6206 46.8745 38.6206 52.9656ZM51.4979 49.291V52.0496H53.3407C54.3558 52.0496 55.1834 52.8772 55.1834 53.8924C55.1834 54.9075 54.3558 55.7351 53.3407 55.7351H49.6552C48.64 55.7351 47.8125 54.9075 47.8125 53.8924V49.291C47.8125 48.2758 48.64 47.4483 49.6552 47.4483C50.6704 47.4483 51.4979 48.2758 51.4979 49.291Z" fill="white"/>
<path id="Vector_2" d="M9.0041 57.3793H34.8137C35.9612 57.3793 36.8 56.3421 36.6013 55.2167C36.2924 53.4732 36.3255 51.6084 36.822 49.6883C38.1571 44.4801 42.6372 40.4966 47.9779 39.8345C50.2621 39.5476 52.4358 39.8565 54.4 40.6179C55.3049 40.9709 56.2758 40.2759 56.2758 39.3159V12.3145C56.2758 9.16969 53.7268 6.62073 50.582 6.62073H47.4483V9.7655C47.4483 11.8841 46.0248 13.8372 43.9503 14.2566C41.1145 14.8193 38.6206 12.6677 38.6206 9.93108V6.62073H20.9655V9.7655C20.9655 11.8841 19.542 13.8372 17.4675 14.2566C14.6317 14.8193 12.1378 12.6677 12.1378 9.93108V6.62073H9.0041C5.85933 6.62073 3.31036 9.16969 3.31036 12.3145V51.6854C3.31036 54.8304 5.85933 57.3793 9.0041 57.3793ZM38.709 21.9366C38.9408 20.9765 39.7352 20.1821 40.6953 19.9503C41.1604 19.8327 41.6481 19.8378 42.1106 19.9652C42.5731 20.0926 42.9946 20.3379 43.3339 20.6772C43.6731 21.0164 43.9185 21.438 44.0459 21.9005C44.1733 22.363 44.1784 22.8507 44.0607 23.3158C43.829 24.2759 43.0345 25.0703 42.0745 25.3021C40.0111 25.7876 38.2125 23.989 38.709 21.9366ZM38.709 32.971C38.9408 32.011 39.7352 31.2165 40.6953 30.9848C41.1604 30.8671 41.6481 30.8722 42.1106 30.9996C42.5731 31.127 42.9946 31.3724 43.3339 31.7116C43.6731 32.0509 43.9185 32.4724 44.0459 32.9349C44.1733 33.3975 44.1784 33.8851 44.0607 34.3503C43.829 35.3103 43.0345 36.1048 42.0745 36.3365C40.0111 36.822 38.2125 35.0234 38.709 32.971ZM26.571 21.9366C26.8028 20.9765 27.5972 20.1821 28.5573 19.9503C29.0224 19.8327 29.5101 19.8378 29.9726 19.9652C30.4351 20.0926 30.8566 20.3379 31.1959 20.6772C31.5351 21.0164 31.7805 21.438 31.9079 21.9005C32.0353 22.363 32.0404 22.8507 31.9227 23.3158C31.691 24.2759 30.8965 25.0703 29.9365 25.3021C27.8731 25.7876 26.0745 23.989 26.571 21.9366ZM26.571 32.971C26.8028 32.011 27.5972 31.2165 28.5573 30.9848C29.0224 30.8671 29.5101 30.8722 29.9726 30.9996C30.4351 31.127 30.8566 31.3724 31.1959 31.7116C31.5351 32.0509 31.7805 32.4724 31.9079 32.9349C32.0353 33.3975 32.0404 33.8851 31.9227 34.3503C31.691 35.3103 30.8965 36.1048 29.9365 36.3365C27.8731 36.822 26.0745 35.0234 26.571 32.971ZM26.571 44.0054C26.8028 43.0454 27.5972 42.2509 28.5573 42.0192C29.0224 41.9015 29.5101 41.9067 29.9726 42.0341C30.4351 42.1615 30.8566 42.4068 31.1959 42.7461C31.5351 43.0853 31.7805 43.5068 31.9079 43.9694C32.0353 44.4319 32.0404 44.9196 31.9227 45.3847C31.691 46.3447 30.8965 47.1392 29.9365 47.3709C27.8731 47.8566 26.0745 46.0578 26.571 44.0054ZM14.4332 21.9366C14.6649 20.9765 15.4594 20.1821 16.4194 19.9503C16.8845 19.8327 17.3722 19.8378 17.8348 19.9652C18.2973 20.0926 18.7188 20.3379 19.0581 20.6772C19.3973 21.0164 19.6426 21.438 19.7701 21.9005C19.8975 22.363 19.9026 22.8507 19.7849 23.3158C19.5532 24.2759 18.7587 25.0703 17.7987 25.3021C15.7352 25.7876 13.9366 23.989 14.4332 21.9366ZM14.4332 32.971C14.6649 32.011 15.4594 31.2165 16.4194 30.9848C16.8845 30.8671 17.3722 30.8722 17.8348 30.9996C18.2973 31.127 18.7188 31.3724 19.0581 31.7116C19.3973 32.0509 19.6426 32.4724 19.7701 32.9349C19.8975 33.3975 19.9026 33.8851 19.7849 34.3503C19.5532 35.3103 18.7587 36.1048 17.7987 36.3365C15.7352 36.822 13.9366 35.0234 14.4332 32.971ZM14.4332 44.0054C14.6649 43.0454 15.4594 42.2509 16.4194 42.0192C16.8845 41.9015 17.3722 41.9067 17.8348 42.0341C18.2973 42.1615 18.7188 42.4068 19.0581 42.7461C19.3973 43.0853 19.6426 43.5068 19.7701 43.9694C19.8975 44.4319 19.9026 44.9196 19.7849 45.3847C19.5532 46.3447 18.7587 47.1392 17.7987 47.3709C15.7352 47.8566 13.9366 46.0578 14.4332 44.0054Z" fill="white"/>
</g>
</g>
<defs>
<clipPath id="clip0_17561_1248">
<rect width="64" height="64" fill="white"/>
</clipPath>
</defs>
</svg>
