<svg width="64" height="64" viewBox="0 0 64 64" fill="none" xmlns="http://www.w3.org/2000/svg">
<g id="Frame">
<g id="Group">
<path id="Vector" d="M50.388 50.382L53.212 53.218C50.4297 56.0077 47.1232 58.2198 43.4828 59.7269C39.8425 61.2341 35.94 62.0066 32 62C24.9706 62.003 18.1661 59.5224 12.788 54.996L12.786 58.042H8.786V48.384H18.444V52.384H15.892C20.4706 56.0258 26.1497 58.0057 32 58C38.926 58 45.458 55.294 50.388 50.382ZM32 6C37.896 6 43.518 7.98 48.108 11.616H45.556V15.616H55.212V5.956H51.212V9.004C45.8339 4.47762 39.0294 1.99697 32 2C24.008 2 16.474 5.12 10.788 10.78L13.612 13.62C16.0232 11.2002 18.8891 9.28114 22.0449 7.97338C25.2007 6.66562 28.584 5.99496 32 6ZM61.956 29.326L57.956 29.4L58 32C58 32.426 57.988 32.848 57.968 33.268L57.874 35.266L61.87 35.458L61.964 33.458C61.988 32.978 62 32.488 62 31.982L61.956 29.326ZM56.566 40.54C56.366 41.126 56.142 41.7 55.898 42.266L55.106 44.104L58.78 45.688L59.57 43.852C59.854 43.192 60.11 42.528 60.348 41.848L61 39.958L57.22 38.65L56.566 40.54ZM56.78 24.114L57.392 26.018L61.202 24.792L60.588 22.886C60.368 22.204 60.122 21.53 59.854 20.87L59.1 19.016L55.394 20.522L56.146 22.374C56.378 22.944 56.59 23.524 56.78 24.114ZM6 32C6 31.574 6.012 31.152 6.032 30.732L6.126 28.734L2.13 28.542L2.036 30.542C2.012 31.022 2 31.512 2 32.018L2.044 34.674L6.044 34.6L6 32ZM7.22 39.886L6.608 37.982L2.798 39.208L3.412 41.114C3.632 41.796 3.878 42.47 4.146 43.13L4.9 44.984L8.606 43.478L7.854 41.626C7.62063 41.0543 7.40915 40.4739 7.22 39.886ZM7.434 23.46C7.634 22.874 7.858 22.3 8.102 21.734L8.894 19.896L5.22 18.312L4.43 20.148C4.146 20.808 3.89 21.472 3.652 22.152L3 24.042L6.78 25.35L7.434 23.46ZM34 26H30V30H34C34.5304 30 35.0391 29.7893 35.4142 29.4142C35.7893 29.0391 36 28.5304 36 28C36 27.4696 35.7893 26.9609 35.4142 26.5858C35.0391 26.2107 34.5304 26 34 26ZM34 34H30V38H34C34.5304 38 35.0391 37.7893 35.4142 37.4142C35.7893 37.0391 36 36.5304 36 36C36 35.4696 35.7893 34.9609 35.4142 34.5858C35.0391 34.2107 34.5304 34 34 34ZM52 32C52 43.028 43.028 52 32 52C20.972 52 12 43.028 12 32C12 20.972 20.972 12 32 12C43.028 12 52 20.972 52 32ZM38.44 32C39.4 30.936 40 29.542 40 28C40 24.692 37.308 22 34 22V20H30V22H24V26H26V38H24V42H30V44H34V42C37.308 42 40 39.308 40 36C40 34.458 39.4 33.064 38.44 32Z" fill="white"/>
</g>
</g>
</svg>
