<svg width="64" height="64" viewBox="0 0 64 64" fill="none" xmlns="http://www.w3.org/2000/svg">
<g id="Frame">
<g id="Group">
<path id="Vector" d="M58 13.3333V24C58 27.84 55.0667 30.96 51.3333 31.3067V23.6533C52.4063 22.94 53.2209 21.8999 53.6563 20.6872C54.0917 19.4745 54.1249 18.1539 53.7508 16.9209C53.3767 15.6879 52.6153 14.6083 51.5795 13.842C50.5436 13.0757 49.2885 12.6636 48 12.6667H16C14.7115 12.6636 13.4564 13.0757 12.4205 13.842C11.3847 14.6083 10.6233 15.6879 10.2492 16.9209C9.87513 18.1539 9.90827 19.4745 10.3437 20.6872C10.7791 21.8999 11.5937 22.94 12.6667 23.6533V31.3067C8.93333 30.96 6 27.84 6 24V13.3333C6 9.28 9.28 6 13.3333 6H50.6667C54.72 6 58 9.28 58 13.3333ZM50 18.6667C50 19.1971 49.7893 19.7058 49.4142 20.0809C49.0391 20.456 48.5304 20.6667 48 20.6667H47.3333V50.6667C47.3319 52.6112 46.5588 54.4756 45.1839 55.8506C43.8089 57.2255 41.9445 57.9986 40 58H24C22.0555 57.9986 20.1911 57.2255 18.8161 55.8506C17.4411 54.4756 16.6681 52.6112 16.6667 50.6667V20.6667H16C15.4696 20.6667 14.9609 20.456 14.5858 20.0809C14.2107 19.7058 14 19.1971 14 18.6667C14 18.1362 14.2107 17.6275 14.5858 17.2525C14.9609 16.8774 15.4696 16.6667 16 16.6667H48C48.5304 16.6667 49.0391 16.8774 49.4142 17.2525C49.7893 17.6275 50 18.1362 50 18.6667ZM28.6667 42.6667C28.6667 42.1362 28.456 41.6275 28.0809 41.2525C27.7058 40.8774 27.1971 40.6667 26.6667 40.6667C26.1362 40.6667 25.6275 40.8774 25.2525 41.2525C24.8774 41.6275 24.6667 42.1362 24.6667 42.6667V48C24.6667 48.5304 24.8774 49.0391 25.2525 49.4142C25.6275 49.7893 26.1362 50 26.6667 50C27.1971 50 27.7058 49.7893 28.0809 49.4142C28.456 49.0391 28.6667 48.5304 28.6667 48V42.6667ZM28.6667 29.3333C28.6667 28.8029 28.456 28.2942 28.0809 27.9191C27.7058 27.544 27.1971 27.3333 26.6667 27.3333C26.1362 27.3333 25.6275 27.544 25.2525 27.9191C24.8774 28.2942 24.6667 28.8029 24.6667 29.3333V34.6667C24.6667 35.1971 24.8774 35.7058 25.2525 36.0809C25.6275 36.456 26.1362 36.6667 26.6667 36.6667C27.1971 36.6667 27.7058 36.456 28.0809 36.0809C28.456 35.7058 28.6667 35.1971 28.6667 34.6667V29.3333Z" fill="white"/>
</g>
</g>
</svg>
