<svg width="64" height="64" viewBox="0 0 64 64" fill="none" xmlns="http://www.w3.org/2000/svg">
<g id="Frame" clip-path="url(#clip0_17568_1514)">
<g id="Group">
<path id="Vector" opacity="0.1" d="M32 64C49.6731 64 64 49.6731 64 32C64 14.3269 49.6731 0 32 0C14.3269 0 0 14.3269 0 32C0 49.6731 14.3269 64 32 64Z" fill="white"/>
<path id="Vector_2" d="M44.5572 38.4813C50.6939 32.3446 59.2186 26.9103 63.411 20.8343C64.4196 19.3724 63.713 17.3468 62.0006 16.8756C59.7802 16.2646 56.139 15.6457 50.4982 15.6457C39.359 15.6457 5.01275 17.7917 0.00012207 5.95068C0.00012207 5.95068 2.97062 18.8018 24.6922 19.9157C46.4139 21.0296 45.2037 19.5511 51.894 20.8439C58.1795 22.0587 55.6037 25.9494 52.9117 28.6414C50.2196 31.3337 45.8567 34.9538 44.5572 38.4813Z" fill="white"/>
<path id="Vector_3" d="M37.5025 51.2914C39.963 51.2914 41.9576 49.2967 41.9576 46.8362C41.9576 44.3757 39.963 42.3811 37.5025 42.3811C35.042 42.3811 33.0474 44.3757 33.0474 46.8362C33.0474 49.2967 35.042 51.2914 37.5025 51.2914Z" fill="white"/>
<path id="Vector_4" d="M16.5237 51.2914C18.9842 51.2914 20.9789 49.2967 20.9789 46.8362C20.9789 44.3757 18.9842 42.3811 16.5237 42.3811C14.0632 42.3811 12.0686 44.3757 12.0686 46.8362C12.0686 49.2967 14.0632 51.2914 16.5237 51.2914Z" fill="white"/>
</g>
</g>
<defs>
<clipPath id="clip0_17568_1514">
<rect width="64" height="64" fill="white"/>
</clipPath>
</defs>
</svg>
