<svg width="64" height="64" viewBox="0 0 64 64" fill="none" xmlns="http://www.w3.org/2000/svg">
<g id="Frame">
<g id="Group">
<path id="Vector" d="M53.2293 12.3239C53.185 12.0008 52.902 11.8221 52.6687 11.8026C52.4353 11.7831 47.8795 11.7138 47.8795 11.7138C47.8795 11.7138 44.0694 8.01343 43.693 7.63681C43.3167 7.26018 42.5814 7.37443 42.296 7.45843L40.3814 8.05118C40.1813 7.40093 39.886 6.60231 39.4653 5.79981C38.1085 3.21181 36.1224 1.84193 33.7218 1.83843H33.7137C33.5473 1.83843 33.3814 1.85406 33.2154 1.86918C33.1456 1.78385 33.0732 1.70061 32.9984 1.61956C31.9533 0.500933 30.6112 -0.0440668 29.0048 0.00305818C25.9038 0.0919332 22.8172 2.33106 20.3135 6.30756C18.5512 9.10631 17.2123 12.6222 16.8315 15.3433C13.2718 16.4457 10.7812 17.2171 10.7273 17.2339C8.93041 17.7978 8.87391 17.8543 8.63829 19.5472C8.45991 20.8288 3.75879 57.1861 3.75879 57.1861L43.163 64.0001L60.241 59.7552C60.241 59.7552 53.2734 12.6471 53.2293 12.3239ZM19.039 14.6596C20.1045 9.67756 24.279 2.20343 29.0644 2.06581C29.7924 2.05056 30.4055 2.21031 30.9292 2.55493C30.0917 2.98981 29.2815 3.61481 28.5217 4.42981C26.5522 6.54256 25.0435 9.82306 24.4419 12.9864L19.039 14.6596ZM33.2883 10.2473L26.7097 12.2843C27.3462 9.84956 28.5509 7.42543 30.0314 5.83731C30.5822 5.24656 31.3527 4.58731 32.2649 4.21093C33.1232 5.99931 33.309 8.53456 33.2883 10.2473ZM35.3495 9.60906C35.3267 8.03893 35.1392 5.85506 34.4078 3.96718C36.7604 4.41293 37.9188 7.07493 38.4077 8.66218L35.3495 9.60906Z" fill="white"/>
<path id="Vector_2" opacity="0.1" d="M52.6687 11.8027C52.4353 11.7832 47.8796 11.7139 47.8796 11.7139C47.8796 11.7139 44.0694 8.01355 43.6931 7.63693C43.5527 7.49643 43.3623 7.42455 43.1641 7.39355L43.1651 63.9998L60.2411 59.7553C60.2411 59.7553 53.2736 12.6472 53.2293 12.3241C53.1851 12.0009 52.9021 11.8222 52.6687 11.8027Z" fill="#030712"/>
<path id="Vector_3" d="M33.699 20.5836L31.7154 28.0037C31.7154 28.0037 29.5029 26.9962 26.8797 27.1619C23.0336 27.4047 22.9927 29.8309 23.0311 30.4389C23.2406 33.7575 31.9709 34.4826 32.4616 42.2554C32.8477 48.3706 29.218 52.5536 23.9879 52.8839C17.7117 53.2801 14.2559 49.5767 14.2559 49.5767L15.5857 43.9186C15.5857 43.9186 19.0636 46.5426 21.8476 46.3669C23.6661 46.252 24.3159 44.773 24.2499 43.727C23.9765 39.398 16.8675 39.653 16.4184 32.5401C16.0404 26.5536 19.9714 20.489 28.6454 19.9412C31.9875 19.7304 33.699 20.5836 33.699 20.5836Z" fill="#F55991"/>
</g>
</g>
</svg>
