<svg width="64" height="64" viewBox="0 0 64 64" fill="none" xmlns="http://www.w3.org/2000/svg">
<g id="Frame" clip-path="url(#clip0_17561_1252)">
<g id="Group">
<path id="Vector" d="M26.125 9.71813C26.125 6.27188 28.9288 3.46813 32.375 3.46813H34.538L33.8855 1.65437C33.5186 0.634375 32.5574 0 31.5329 0C31.249 0 30.9603 0.04875 30.678 0.1515L8.82139 8.10662C7.52201 8.57962 6.85326 10.0175 7.32901 11.3159L8.48389 14.4681H26.125V9.71813Z" fill="white"/>
<path id="Vector_2" d="M32.375 7.21814C30.9942 7.21814 29.875 8.33739 29.875 9.71814V14.4681H51.75V9.71814C51.75 8.33739 50.6307 7.21814 49.25 7.21814H32.375ZM58.375 50.5306H49.625C44.4556 50.5306 40.25 46.325 40.25 41.1556C40.25 35.9863 44.4556 31.7806 49.625 31.7806H58.375V23.2181C58.375 20.4568 56.1364 18.2181 53.375 18.2181H5C2.23863 18.2181 0 20.4568 0 23.2181V59C0 61.7614 2.23863 64 5 64H53.375C56.1364 64 58.375 61.7614 58.375 59V50.5306Z" fill="white"/>
<path id="Vector_3" d="M62.125 35.5306H49.625C46.5234 35.5306 44 38.054 44 41.1556C44 44.2573 46.5234 46.7806 49.625 46.7806H62.125C63.1589 46.7806 64 45.9395 64 44.9056V37.4056C64 36.3718 63.1589 35.5306 62.125 35.5306ZM49.625 43.0306C48.5895 43.0306 47.75 42.1911 47.75 41.1556C47.75 40.1201 48.5895 39.2806 49.625 39.2806C50.6605 39.2806 51.5 40.1201 51.5 41.1556C51.5 42.1911 50.6605 43.0306 49.625 43.0306Z" fill="white"/>
</g>
</g>
<defs>
<clipPath id="clip0_17561_1252">
<rect width="64" height="64" fill="white"/>
</clipPath>
</defs>
</svg>
