<svg width="64" height="64" viewBox="0 0 64 64" fill="none" xmlns="http://www.w3.org/2000/svg">
<g id="Frame">
<path id="Vector" d="M58.0285 13H5.97152C2.67334 13 0 15.6702 0 18.964V38.5399C0 41.8339 2.67376 44.5039 5.97152 44.5039H30.7458L41.7256 50.875L39.5329 44.5039H58.0285C61.3267 44.5039 64 41.8337 64 38.5399V18.964C64.0002 15.67 61.3265 13 58.0285 13Z" fill="white"/>
<path id="Vector_2" d="M9.35672 41.625L9.33034 41.6248C8.97683 41.6206 8.62957 41.5307 8.31809 41.3627C8.00662 41.1947 7.74014 40.9537 7.54134 40.6601C6.90397 39.7187 5.9696 37.5485 4.38927 29.0508C3.54218 24.4962 2.90545 20.2069 2.89917 20.1643C2.72083 18.9597 3.54867 17.8384 4.74804 17.6593C5.94657 17.48 7.06389 18.3114 7.24223 19.5161C7.2483 19.558 7.8708 23.7491 8.69905 28.2076C9.17755 30.783 9.58675 32.7042 9.92668 34.1337C11.9968 30.3022 14.5236 25.1498 15.6359 22.8229C15.8345 22.4072 16.1578 22.0644 16.5604 21.8429C16.963 21.6213 17.4246 21.5321 17.8803 21.5878C18.336 21.6435 18.7629 21.8413 19.1008 22.1534C19.4387 22.4654 19.6708 22.876 19.7642 23.3274C20.1278 25.0739 21.0697 28.7107 22.4079 32.0115C22.9014 27.3184 23.8565 21.3625 25.6774 17.6137C26.2088 16.5193 27.5233 16.0648 28.613 16.5987C29.7027 17.1327 30.1552 18.4527 29.6236 19.547C26.7283 25.508 26.2948 39.0868 26.2906 39.2235C26.2779 39.6538 26.14 40.0709 25.894 40.4234C25.648 40.776 25.3046 41.0484 24.9061 41.2072C24.5077 41.366 24.0717 41.4042 23.652 41.3171C23.2322 41.2299 22.847 41.0213 22.5439 40.7169C20.577 38.7414 18.784 35.3372 17.2144 30.5986C17.1466 30.3937 17.0806 30.1908 17.0164 29.9905C15.0919 33.837 12.5622 38.7107 11.142 40.704C10.9386 40.9889 10.6706 41.221 10.3601 41.3811C10.0497 41.5413 9.70572 41.6249 9.35672 41.625ZM43.4375 23.0184C42.5232 21.1535 40.9529 19.8641 38.9014 19.2908C36.5613 18.6385 34.0263 19.5061 32.1192 21.6148C29.8555 24.1121 28.2042 28.7931 30.3564 34.4339C31.8306 38.2998 34.1489 39.0093 35.647 39.0093C35.8088 39.0093 35.9597 39.0004 36.0997 38.9874C40.0868 38.6073 43.4354 33.3092 44.0805 29.6762C44.5441 27.0733 44.3277 24.8328 43.4375 23.0184ZM39.7588 28.9007C39.5553 30.0363 38.8489 31.5387 37.9545 32.7271C37.0358 33.9506 36.1347 34.5547 35.6863 34.5964C35.413 34.6226 34.9056 34.034 34.4572 32.8566C33.5562 30.4975 33.2543 26.9127 35.3671 24.5799C35.997 23.8836 36.7298 23.4903 37.3596 23.4903C37.4864 23.4903 37.6089 23.5057 37.7249 23.5387C40.0759 24.1956 40.1282 26.8162 39.7588 28.9007ZM59.7468 23.0184C59.2876 22.0871 58.6663 21.2963 57.9052 20.6702C57.1398 20.0442 56.2343 19.5786 55.2084 19.2908C52.8704 18.6385 50.3356 19.5061 48.4263 21.6148C46.1648 24.1121 44.5135 28.7931 46.6634 34.4339C48.1376 38.2998 50.456 39.0093 51.954 39.0093C52.1158 39.0093 52.269 39.0004 52.4089 38.9874C56.3938 38.6073 59.7422 33.3092 60.3875 29.6762C60.8513 27.0733 60.6347 24.8328 59.7468 23.0184ZM56.0658 28.9007C55.8646 30.0363 55.1559 31.5387 54.2636 32.7271C53.3428 33.9506 52.4417 34.5547 51.9934 34.5964C51.7221 34.6226 51.2126 34.034 50.7643 32.8566C49.8653 30.4975 49.5637 26.9127 51.6742 24.5799C52.3063 23.8836 53.0389 23.4903 53.6666 23.4903C53.7935 23.4903 53.9159 23.5057 54.034 23.5387C56.3852 24.1956 56.4354 26.8162 56.0658 28.9007Z" fill="#F55991"/>
</g>
</svg>
